# xmcd CD database file
#
# Track frame offsets:
#	150
#	17725
#	32786
#	46909
#	63063
#	83508
#	95050
#	111201
#	126706
#	147551
#
# Disc length: 2214 seconds
#
# Revision: 0
# Processed by: cddbd v1.5.2PL0 Copyright (c) Steve Scherf et al.
# Submitted via: CDex 1.81
#
DISCID=8808a40a
DTITLE=Dave Wilson - Full Circle
DYEAR=1900
DGENRE=Country
TTITLE0=A Bible And A Bus Ticket
TTITLE1=I Couldn't Leave You If I Tried
TTITLE2=Staue Of A Fool
TTITLE3=Take It Easy
TTITLE4=That Summer
TTITLE5=She's Alright Already
TTITLE6=See The Love She Found In Me
TTITLE7=Thar's What I get For Leaving You
TTITLE8=The Bluest Eyes In Texas
TTITLE9=Vincent
EXTD=
EXTT0=
EXTT1=
EXTT2=
EXTT3=
EXTT4=
EXTT5=
EXTT6=
EXTT7=
EXTT8=
EXTT9=
PLAYORDER=
